<mxfile host="app.diagrams.net" modified="2024-04-05T21:49:59.366Z" agent="Mozilla/5.0 (Windows NT 10.0; Win64; x64) AppleWebKit/537.36 (KHTML, like Gecko) Chrome/123.0.0.0 Safari/537.36" etag="XlHE8TJ7_oZrQaVeicux" version="24.2.2" type="device">
  <diagram name="Page-1" id="i6SE6xsplpBzSR6WahF2">
    <mxGraphModel dx="444" dy="509" grid="1" gridSize="10" guides="1" tooltips="1" connect="1" arrows="1" fold="1" page="1" pageScale="1" pageWidth="850" pageHeight="1100" math="0" shadow="0">
      <root>
        <mxCell id="0" />
        <mxCell id="1" parent="0" />
        <mxCell id="-E9IwzULFlUBGaCUpkEr-1" value="" style="rounded=0;whiteSpace=wrap;html=1;" vertex="1" parent="1">
          <mxGeometry x="190" y="200" width="370" height="350" as="geometry" />
        </mxCell>
        <mxCell id="-E9IwzULFlUBGaCUpkEr-2" value="UTF8" style="rounded=0;whiteSpace=wrap;html=1;" vertex="1" parent="1">
          <mxGeometry x="200" y="210" width="350" height="120" as="geometry" />
        </mxCell>
        <mxCell id="-E9IwzULFlUBGaCUpkEr-4" value="BASE64" style="rounded=0;whiteSpace=wrap;html=1;" vertex="1" parent="1">
          <mxGeometry x="200" y="380" width="350" height="120" as="geometry" />
        </mxCell>
        <mxCell id="-E9IwzULFlUBGaCUpkEr-5" value="Copy 📎" style="rounded=0;whiteSpace=wrap;html=1;" vertex="1" parent="1">
          <mxGeometry x="200" y="510" width="350" height="30" as="geometry" />
        </mxCell>
        <mxCell id="-E9IwzULFlUBGaCUpkEr-7" value="Swap 🔄️" style="rounded=0;whiteSpace=wrap;html=1;" vertex="1" parent="1">
          <mxGeometry x="200" y="340" width="350" height="30" as="geometry" />
        </mxCell>
        <mxCell id="-E9IwzULFlUBGaCUpkEr-8" value="" style="rounded=0;whiteSpace=wrap;html=1;" vertex="1" parent="1">
          <mxGeometry x="530" y="390" width="10" height="100" as="geometry" />
        </mxCell>
        <mxCell id="-E9IwzULFlUBGaCUpkEr-9" value="" style="rounded=0;whiteSpace=wrap;html=1;" vertex="1" parent="1">
          <mxGeometry x="530" y="220" width="10" height="100" as="geometry" />
        </mxCell>
        <mxCell id="-E9IwzULFlUBGaCUpkEr-10" value="TkBase64" style="rounded=0;whiteSpace=wrap;html=1;" vertex="1" parent="1">
          <mxGeometry x="190" y="180" width="370" height="20" as="geometry" />
        </mxCell>
        <mxCell id="-E9IwzULFlUBGaCUpkEr-11" value="" style="ellipse;whiteSpace=wrap;html=1;aspect=fixed;fillColor=#CCFF99;" vertex="1" parent="1">
          <mxGeometry x="240" y="185" width="10" height="10" as="geometry" />
        </mxCell>
        <mxCell id="-E9IwzULFlUBGaCUpkEr-12" value="" style="ellipse;whiteSpace=wrap;html=1;aspect=fixed;fillColor=#FFFF99;" vertex="1" parent="1">
          <mxGeometry x="220" y="185" width="10" height="10" as="geometry" />
        </mxCell>
        <mxCell id="-E9IwzULFlUBGaCUpkEr-13" value="" style="ellipse;whiteSpace=wrap;html=1;aspect=fixed;fillColor=#FF6666;" vertex="1" parent="1">
          <mxGeometry x="200" y="185" width="10" height="10" as="geometry" />
        </mxCell>
      </root>
    </mxGraphModel>
  </diagram>
</mxfile>
